<svg version="1.0" xmlns="http://www.w3.org/2000/svg" width="277.333" height="416" viewBox="0 0 208 312"><path d="M0 142c0 78.1.3 142 .7 142 .4 0 14.9-14.2 32.3-31.5L64.6 221l2.4 5.7c8.8 21.5 24.7 58.8 27.2 63.8 8.6 17.5 12 18.5 33 9.9 16.5-6.7 17.9-7.5 18.9-10.2 1.5-3.8-.8-10.1-17.7-49.5-8.5-19.8-15.3-36.1-15.2-36.2.2-.1 20.3-.8 44.8-1.5 24.5-.6 44.7-1.4 45-1.6C203.7 200.7 2.7 0 1.3 0 .3 0 0 29 0 142zm34.5-91.6c-.3 2.7-1.5 6.7-2.6 8.9C29.1 64.7 27 71.8 27 76c0 1.9-.7 4.4-1.5 5.4-3.2 4.2-2.3 4.6 11.4 4.6 7.4 0 13.2.4 13.6 1 .7 1.2-1.3 5.2-3.1 6.3-.8.4-1.4 2-1.3 3.5 0 2.4.1 2.5.8.7.5-1.1 1.8-2.9 3-3.9 1.3-1.2 2.1-3.1 2.1-5.3V85H27.1l.6-5.8c.6-5.7 2.3-11.4 6.1-20.7 1.2-2.8 2.4-6.3 2.7-7.9.6-2.9 3.3-.3 73.1 69.5 39.8 39.8 72.4 72.6 72.4 73 0 .3-17.9 1.3-39.7 2.3-21.9 1.1-40.2 2.2-40.6 2.6-.5.5 3.9 12 9.8 25.6 15.2 35.3 20.3 48.5 22.9 60.7.6 2.7.3 2.9-9.6 7.7-5.7 2.7-11.5 5-13 5-5.5 0-8.6-5.6-27.5-50.9-6.2-15-12.6-29.8-14.2-32.8l-2.7-5.5-6.5 5.3c-3.5 2.9-16.6 15.3-29 27.6C19.5 253 9 263 8.7 263c-.4 0-.7-55-.7-122.2V18.5L21.6 32l13.5 13.5-.6 4.9z"/></svg>